<svg xmlns="http://www.w3.org/2000/svg" width="9.732" height="9.731" viewBox="0 0 9.732 9.731">
  <path id="Icon_ionic-ios-call" data-name="Icon ionic-ios-call" d="M13.941,12.122a8.174,8.174,0,0,0-1.708-1.143c-.512-.246-.7-.241-1.062.02-.3.218-.5.421-.844.345a5.033,5.033,0,0,1-1.695-1.254A5,5,0,0,1,7.379,8.4c-.073-.35.129-.542.345-.844.261-.362.269-.55.02-1.062A8.013,8.013,0,0,0,6.6,4.783c-.372-.372-.456-.291-.661-.218a3.763,3.763,0,0,0-.606.322,1.827,1.827,0,0,0-.727.768c-.144.312-.312.892.54,2.407A13.43,13.43,0,0,0,7.508,11.21h0l0,0,0,0h0a13.482,13.482,0,0,0,3.149,2.361c1.515.851,2.1.684,2.407.54a1.8,1.8,0,0,0,.768-.727,3.763,3.763,0,0,0,.322-.606C14.232,12.578,14.316,12.495,13.941,12.122Z" transform="translate(-4.49 -4.502)" fill="#fff"/>
</svg>
