<svg xmlns="http://www.w3.org/2000/svg" width="10.286" height="7.714" viewBox="0 0 10.286 7.714">
  <g id="Icon_ionic-ios-camera" data-name="Icon ionic-ios-camera" transform="translate(-4.5 -7.875)">
    <path id="Path_3382" data-name="Path 3382" d="M17.037,16.833a1.54,1.54,0,1,1-1.54-1.54A1.54,1.54,0,0,1,17.037,16.833Z" transform="translate(-5.854 -4.592)" fill="#94b92d"/>
    <path id="Path_3383" data-name="Path 3383" d="M13.969,9.161h-1.46a.435.435,0,0,1-.321-.145c-.761-.852-1.047-1.141-1.358-1.141H8.539c-.313,0-.621.289-1.385,1.144a.426.426,0,0,1-.319.142h-.11V8.946a.215.215,0,0,0-.214-.214h-.7a.215.215,0,0,0-.214.214v.214H5.4a.869.869,0,0,0-.9.822V14.7a.927.927,0,0,0,.9.892h8.571a.859.859,0,0,0,.817-.892V9.983A.8.8,0,0,0,13.969,9.161ZM9.75,14.529a2.29,2.29,0,1,1,2.18-2.18A2.292,2.292,0,0,1,9.75,14.529Zm2.464-3.814a.348.348,0,1,1,.348-.348A.348.348,0,0,1,12.214,10.714Z" fill="#94b92d"/>
  </g>
</svg>
