<svg xmlns="http://www.w3.org/2000/svg" width="15.409" height="14.635" viewBox="0 0 15.409 14.635">
  <g id="noun_Shopping_Bag_2801649" data-name="noun_Shopping Bag_2801649" transform="translate(-13.591 -14.515)">
    <path id="Path_1037" data-name="Path 1037" d="M14.9,14.516a.476.476,0,0,0-.468.442L13.6,26.647a2.338,2.338,0,0,0,2.162,2.5c.053,0,.106.005.156.006H26.675A2.337,2.337,0,0,0,29,26.806h0c0-.051,0-.1-.006-.156h0l-.836-11.692a.477.477,0,0,0-.468-.442H14.9Zm.44.943H27.25l.8,11.255a1.378,1.378,0,0,1-.367,1.045l0,0a1.369,1.369,0,0,1-1.01.445H15.917a1.39,1.39,0,0,1-1.382-1.4h0c0-.031,0-.062,0-.092Zm3.024,1.263a.474.474,0,0,0-.472.472v3.883a3.4,3.4,0,0,0,6.8,0V17.194a.472.472,0,1,0-.943,0v3.883a2.463,2.463,0,0,1-4.917,0V17.194a.475.475,0,0,0-.472-.472Z" fill="#fff"/>
  </g>
</svg>
