<svg xmlns="http://www.w3.org/2000/svg" width="54.429" height="54.643" viewBox="0 0 54.429 54.643">
  <g id="cash-payment-icon-5" transform="translate(-84 832)">
    <path id="Path_3279" data-name="Path 3279" d="M321.251-831.076a7.291,7.291,0,0,1-.824.924c-.043,0-.057.028-.028.071s-.043.121-.142.185-.178.149-.178.2a3.4,3.4,0,0,1-.462.576,3.675,3.675,0,0,0-.5.611.459.459,0,0,1-.213.206c-.092.05-.163.114-.142.142a1.629,1.629,0,0,1-.313.412,1.9,1.9,0,0,0-.313.4c.014.014-.05.092-.149.171s-.185.171-.185.206a2.269,2.269,0,0,1-.341.433,1.451,1.451,0,0,0-.313.4c.014.021-.057.085-.156.149s-.185.163-.185.213a.393.393,0,0,1-.163.227,7.387,7.387,0,0,0-.6.675,2.877,2.877,0,0,1-.519.554c-.036,0-.064.043-.064.092a1.558,1.558,0,0,1-.306.426,1.683,1.683,0,0,0-.277.334,10.269,10.269,0,0,1-.9,1.052.276.276,0,0,0-.114.149.7.7,0,0,1-.156.227c-.405.433-.6.654-1.151,1.329a4.781,4.781,0,0,1-.661.725c-.036,0-.05.028-.021.064s-.043.128-.142.206-.178.171-.178.206a2.056,2.056,0,0,1-.32.4c-.178.192-.32.363-.32.37a1.98,1.98,0,0,1-.192.227c-.114.114-.249.27-.306.341-.419.547-1.734,2.089-1.791,2.089-.036,0-.05.028-.021.071s-.043.121-.142.185-.178.156-.178.2a.79.79,0,0,1-.22.3,23.886,23.886,0,0,0-1.7,2.068c0,.035.149.142.341.234a3.873,3.873,0,0,1,.37.213c.021.021.242.142.5.277a2.627,2.627,0,0,1,.512.32c.028.043.057.057.057.029a1.927,1.927,0,0,1,.533.263,6.009,6.009,0,0,0,.576.32.879.879,0,0,1,.227.128c.171.121.8.476,1.4.8a5.424,5.424,0,0,1,1.172.718c0,.036.043.064.092.064a2.019,2.019,0,0,1,.689.7c0,.05.021.085.057.085a2.75,2.75,0,0,1,.54,1.144,3.827,3.827,0,0,1-.49,2.977,4.5,4.5,0,0,1-1.471,1.243,3.9,3.9,0,0,1-3.254,0c-.448-.142-1.329-.419-1.954-.618s-1.613-.519-2.2-.7-1.087-.348-1.116-.348c-.2,0,.05.277.8.881a7.111,7.111,0,0,1,.853.76c0,.035.028.057.057.043a1.691,1.691,0,0,1,.448.32c.213.185.476.4.583.5s.291.241.4.341.611.526,1.13.952a7.563,7.563,0,0,1,.938.838c0,.036.028.05.064.021s.128.043.206.142a.537.537,0,0,0,.2.178,1.517,1.517,0,0,1,.377.32,1.708,1.708,0,0,0,.369.32.877.877,0,0,1,.256.185c.107.107.625.54,1.144.966a8.7,8.7,0,0,1,.938.846c0,.043.028.057.064.028s.121.036.185.121.135.164.171.164a1.691,1.691,0,0,1,.4.32,12.8,12.8,0,0,0,1.677,1.35.515.515,0,0,0,.256-.163,8.229,8.229,0,0,0,.789-.9,11.041,11.041,0,0,1,.867-1.009c.107-.107.178-.206.156-.22s.05-.1.149-.178.185-.171.185-.206a2.275,2.275,0,0,1,.341-.433,1.451,1.451,0,0,0,.313-.4c-.014-.021.057-.085.156-.149s.185-.156.185-.192a10.827,10.827,0,0,1,1.108-1.307c.121-.128.213-.249.2-.263a2.508,2.508,0,0,1,.32-.391,1.706,1.706,0,0,0,.313-.4c-.014-.014.05-.092.149-.171a.514.514,0,0,0,.185-.2,1.817,1.817,0,0,1,.334-.419,4.592,4.592,0,0,0,.341-.391,1.081,1.081,0,0,1,.192-.242c.32-.348.433-.483.9-1.052a2.962,2.962,0,0,1,.512-.554c.043,0,.071-.043.071-.092a1.586,1.586,0,0,1,.327-.44,1.807,1.807,0,0,0,.3-.377,5.779,5.779,0,0,1,.476-.569c.277-.3.846-.974,1.272-1.492a8.57,8.57,0,0,1,.831-.938c.036,0,.064-.043.064-.1a.442.442,0,0,1,.178-.242c.092-.078.156-.156.135-.177s.043-.092.142-.156.185-.156.185-.206a1.338,1.338,0,0,1,.306-.4c.163-.178.455-.5.632-.725s.348-.377.377-.355.036.014.021-.021a14.886,14.886,0,0,1,1.585-1.954c.035,0,.064-.043.064-.092s.064-.128.142-.178.142-.128.142-.178a3.284,3.284,0,0,1,.526-.632,3.957,3.957,0,0,0,.49-.583c-.014-.014.05-.092.149-.171s.185-.171.185-.206a2.169,2.169,0,0,1,.306-.4,2.035,2.035,0,0,0,.291-.355,2.539,2.539,0,0,1,.362-.441,3.237,3.237,0,0,0,.391-.476c0-.028.064-.085.142-.128s.142-.114.142-.156a.512.512,0,0,1,.163-.234c.085-.085.284-.313.441-.5s.384-.448.5-.576.213-.242.2-.256a2.51,2.51,0,0,1,.32-.391,1.716,1.716,0,0,0,.313-.4c-.014-.014.05-.093.149-.171s.185-.171.185-.206a2.424,2.424,0,0,1,.355-.448,1.918,1.918,0,0,0,.355-.455,2.766,2.766,0,0,0-.7-.682,2.5,2.5,0,0,1-.412-.341c-.2-.185-.426-.384-.5-.441a10.96,10.96,0,0,1-1.307-1.158c0-.043-.021-.05-.043-.029a4.484,4.484,0,0,1-1.052-.831.416.416,0,0,0-.192-.149.568.568,0,0,1-.22-.156c-.32-.306-.632-.576-1.741-1.485a16.733,16.733,0,0,1-1.819-1.578.205.205,0,0,0-.128-.085,9.881,9.881,0,0,1-1.315-1.108c-.128-.121-.249-.213-.263-.2a2.415,2.415,0,0,1-.4-.327,3.331,3.331,0,0,0-.412-.355,11.56,11.56,0,0,1-1.18-1.009,1.541,1.541,0,0,0-.334-.27,3.563,3.563,0,0,1-.54-.426,1.751,1.751,0,0,0-.632-.427C322.047-832,321.806-831.758,321.251-831.076Zm-1.784,11.966a5.278,5.278,0,0,1,1.684.831c.071.071.135.106.156.092a6.009,6.009,0,0,1,1.045.966.8.8,0,0,0,.185.263,7.32,7.32,0,0,1,.995,2.046,6.923,6.923,0,0,1,0,2.622,4.416,4.416,0,0,1-.554,1.307.1.1,0,0,0-.057.092c0,.107-.128.256-.789.924a3.873,3.873,0,0,1-1.208.91,5.2,5.2,0,0,1-3.475.448,6.73,6.73,0,0,1-2.245-.988.837.837,0,0,0-.213-.163,3.083,3.083,0,0,1-.739-.682c0-.05-.085-.135-.185-.206s-.163-.135-.142-.156-.035-.1-.121-.171-.128-.128-.1-.135,0-.064-.071-.135a4.924,4.924,0,0,1-.739-1.606,6.651,6.651,0,0,1-.071-2.587,5.779,5.779,0,0,1,.625-1.535,11.533,11.533,0,0,1,1.073-1.2c.05-.043.149-.128.213-.192a5.016,5.016,0,0,1,1.577-.76,3.94,3.94,0,0,1,1.705-.192A4.881,4.881,0,0,1,319.468-819.11Z" transform="translate(-203.322)" fill="#94b92d"/>
    <path id="Path_3280" data-name="Path 3280" d="M466.239-627.389a6.259,6.259,0,0,0-.547.4l-.156.142-.313-.256a1.711,1.711,0,0,0-.362-.256,1.185,1.185,0,0,0-.284.249.959.959,0,0,0-.206.249,1.274,1.274,0,0,1-.22.3c-.234.27-.348.547-.192.448.036-.021.128.043.206.142s.171.178.206.178c.121,0,.306.256.242.327a1.848,1.848,0,0,0-.142.4,1.922,1.922,0,0,0,.945,2.267c.753.4,1.506.284,2.629-.412a1.418,1.418,0,0,1,.711-.263c.263-.007.284.007.306.22.021.192-.021.284-.277.561a3.662,3.662,0,0,1-1.336.917c-.121.028-.213.085-.213.128a1.87,1.87,0,0,0,.32.49,2.17,2.17,0,0,1,.32.483.076.076,0,0,0,.071.071.073.073,0,0,1,.071.078.4.4,0,0,0,.291.277,4.49,4.49,0,0,0,1.172-.682l.3-.241.355.284c.377.306.512.348.512.178,0-.057.028-.107.064-.107a2.39,2.39,0,0,0,.441-.469l.377-.476-.405-.362-.412-.362.121-.284a2.394,2.394,0,0,0-.028-1.634,1.944,1.944,0,0,0-2.2-1.165,5.992,5.992,0,0,0-1.272.5,3.521,3.521,0,0,1-.981.391c-.4-.156.306-1.037,1.151-1.435.163-.078.3-.177.3-.22a4.4,4.4,0,0,0-.618-.924,1.942,1.942,0,0,1-.135-.213C466.929-627.688,466.666-627.667,466.239-627.389Z" transform="translate(-352.893 -189.859)" fill="#94b92d"/>
    <path id="Path_3281" data-name="Path 3281" d="M164.2-706.5c-.625.156-1.329.348-1.563.426s-.711.213-1.066.305c-.8.213-1.641.455-4.491,1.3a3.6,3.6,0,0,1-1.471.227l-.611-.021v11.142l.306-.043a10.923,10.923,0,0,0,1.087-.256c2.928-.8,3.148-.831,3.581-.611a5.888,5.888,0,0,1,1.187,1.094,2.974,2.974,0,0,0,.654.647,1.64,1.64,0,0,1,.3.234,7.181,7.181,0,0,0,2.906,1.322c.76.242,1.705.554,2.1.682s1.286.419,1.99.647,1.613.519,2.025.661a3.38,3.38,0,0,0,1.421.249,1.752,1.752,0,0,0,1.506-.519,2.3,2.3,0,0,0,.632-2.416,1.347,1.347,0,0,0-.22-.5.067.067,0,0,1-.071-.071,3.046,3.046,0,0,0-1.052-.874,5.292,5.292,0,0,1-.476-.263c-.036-.028-.277-.171-.533-.306s-.7-.384-.995-.547c-1.307-.746-1.556-.881-1.99-1.123-.256-.135-.576-.327-.711-.412a1.083,1.083,0,0,0-.32-.17,1.474,1.474,0,0,1-.377-.206c-.171-.114-.547-.327-.838-.476-.917-.469-1.236-.831-1.236-1.4,0-.284.128-.689.22-.689.036,0,.064-.043.064-.092s.135-.171.306-.27c.277-.156.377-.171,1.435-.192a5.712,5.712,0,0,0,1.123-.071,2.041,2.041,0,0,1,.341-.441,2.937,2.937,0,0,0,.348-.419c0-.029.078-.107.178-.178s.178-.163.178-.206a1.685,1.685,0,0,1,.341-.434c.185-.2.6-.689.931-1.094a4.77,4.77,0,0,1,.661-.725c.036,0,.05-.029.021-.064s.043-.128.142-.206a.537.537,0,0,0,.178-.2,1.819,1.819,0,0,1,.32-.412,4.247,4.247,0,0,0,.32-.362,1.222,1.222,0,0,1,.2-.235c.107-.121.291-.334.405-.476s.334-.391.483-.554a1.18,1.18,0,0,0,.263-.369,3.308,3.308,0,0,0-1.045-.242c-.583-.093-1.272-.206-1.549-.263s-1.343-.249-2.38-.433a17.583,17.583,0,0,0-2.949-.348A5.47,5.47,0,0,0,164.2-706.5Z" transform="translate(-65.955 -116.332)" fill="#94b92d"/>
    <path id="Path_3282" data-name="Path 3282" d="M84-689.609a7.372,7.372,0,0,0,.071.9c.036.284.185,1.734.32,3.219s.377,4.029.533,5.649.3,3.254.32,3.624c.071,1.1-.057.995,1.215.995h1.094V-690H84Z" transform="translate(0 -131.91)" fill="#94b92d"/>
    <path id="Path_3283" data-name="Path 3283" d="M277.056-321.765a2.3,2.3,0,0,0-1.343,1.179,1.722,1.722,0,0,0-.213,1.059,1.916,1.916,0,0,0,.178,1.016,3.139,3.139,0,0,0,.9,1.073.684.684,0,0,1,.256.192c.242.249.3.3,1.521,1.357a8.471,8.471,0,0,1,1.016.945c0,.043.028.057.064.036s.192.1.348.277a1.386,1.386,0,0,0,.341.32,6.5,6.5,0,0,1,1.094,1.009,3.28,3.28,0,0,0,.448.412,1.861,1.861,0,0,1,.313.263,17.142,17.142,0,0,0,2.594,1.94,1.873,1.873,0,0,1,.4.213,10.624,10.624,0,0,0,2.288.91l.675.178,5.649.05c5.109.036,5.7.057,6.182.171a3.291,3.291,0,0,1,1.4.661.156.156,0,0,0,.121.092.944.944,0,0,1,.327.249c.135.135.213.249.178.249s.007.05.092.114.156.135.156.171a.6.6,0,0,0,.163.234l.156.178,1.172-.1c.647-.057,2.167-.2,3.375-.32,2.935-.284,2.778-.27,3.3-.306a38.693,38.693,0,0,0,4.6-.526,3.276,3.276,0,0,0-.291-.867c-.178-.426-.327-.8-.327-.831s-.256-.711-.568-1.478c-.036-.078-.22-.561-.419-1.066a33.106,33.106,0,0,0-1.45-3.333,13.137,13.137,0,0,0-1.165-2.011c-.206-.291-.377-.54-.377-.554a11.158,11.158,0,0,0-1.592-1.542,8.107,8.107,0,0,0-3.809-1.336c-.369-.043-2.864-.071-6.551-.071-5.869,0-5.955,0-6.345.149a2.532,2.532,0,0,0-.647.369,2.921,2.921,0,0,0-.654.853c0,.028-.043.227-.085.441a1.62,1.62,0,0,0-.007.76,2.266,2.266,0,0,0,1.3,1.734l.448.206,3.112.036,3.119.036.135.171c.192.234.171.462-.071.732l-.206.234-4.754-.007c-4.917,0-4.7.007-6.026-.277a8.6,8.6,0,0,1-1.8-.874,3.9,3.9,0,0,0-.377-.263c-.256-.149-1.577-1.073-1.7-1.194a.918.918,0,0,0-.163-.121,9.9,9.9,0,0,1-1.236-.867.12.12,0,0,0-.1-.057,1.571,1.571,0,0,1-.4-.242c-.313-.227-1.208-.839-2.423-1.649A2.429,2.429,0,0,0,277.056-321.765Z" transform="translate(-177.893 -473.847)" fill="#94b92d"/>
    <path id="Path_3284" data-name="Path 3284" d="M654.714-111.95c-.178.014-1.265.121-2.416.234s-2.544.242-3.091.284c-.8.064-2.992.27-4.761.455-.156.014-.995.085-1.862.156L641-110.7v2.181h14.851V-112l-.405.014C655.218-111.979,654.892-111.964,654.714-111.95Z" transform="translate(-517.421 -668.839)" fill="#94b92d"/>
  </g>
</svg>
