<svg xmlns="http://www.w3.org/2000/svg" width="19.278" height="14.534" viewBox="0 0 19.278 14.534">
  <g id="noun_chat_2881354" transform="translate(-1 -9.12)">
    <g id="Group_5022" data-name="Group 5022" transform="translate(1 9.12)">
      <path id="Path_3264" data-name="Path 3264" d="M36.01,16.65H32.505v5.421a2.255,2.255,0,0,1-2.252,2.252H25.58a1.671,1.671,0,0,0,1.665,1.615h4.264L34.442,28.9a.292.292,0,0,0,.207.085.245.245,0,0,0,.108-.023.292.292,0,0,0,.181-.269V25.938h1.069a1.668,1.668,0,0,0,1.671-1.668V18.315A1.668,1.668,0,0,0,36.01,16.65Z" transform="translate(-18.401 -14.451)" />
      <path id="Path_3265" data-name="Path 3265" d="M14.506,16.74V10.788A1.668,1.668,0,0,0,12.838,9.12H2.668A1.668,1.668,0,0,0,1,10.788V16.74a1.668,1.668,0,0,0,1.668,1.668H3.737v2.754a.293.293,0,0,0,.5.207L7.2,18.408h5.64a1.668,1.668,0,0,0,1.668-1.668Zm-2.354-.508h-8.8a.292.292,0,0,1,0-.584h8.8a.292.292,0,1,1,0,.584Zm0-2.176h-8.8a.292.292,0,1,1,0-.584h8.8a.292.292,0,1,1,0,.584Zm0-2.176h-8.8a.292.292,0,0,1,0-.584h8.8a.292.292,0,1,1,0,.584Z" transform="translate(-1 -9.12)" />
    </g>
  </g>
</svg>
