<svg xmlns="http://www.w3.org/2000/svg" width="20" height="20" viewBox="0 0 20 20">
  <g id="chef-hat" transform="translate(-3 -3)">
    <path id="Path_3360" data-name="Path 3360" d="M33,38.008V38.7c.2,0,.435,0,.69.01v-.688Q33.353,38.011,33,38.008Z" transform="translate(-19.655 -22.936)" fill="#94b92d"/>
    <path id="Path_3361" data-name="Path 3361" d="M17,38.84v.672c.221-.038.452-.072.69-.1v-.673Q17.314,38.786,17,38.84Z" transform="translate(-9.172 -23.414)" fill="#94b92d"/>
    <path id="Path_3362" data-name="Path 3362" d="M25,38.132v.683c.237-.012.467-.022.69-.03V38.1Q25.334,38.113,25,38.132Z" transform="translate(-14.414 -22.996)" fill="#94b92d"/>
    <path id="Path_3363" data-name="Path 3363" d="M21,38.39v.676c.229-.022.46-.041.69-.058v-.68C21.448,38.347,21.219,38.367,21,38.39Z" transform="translate(-11.793 -23.146)" fill="#94b92d"/>
    <path id="Path_3364" data-name="Path 3364" d="M29,38.018v.688c.254-.006.487-.008.69-.01v-.688Q29.336,38.011,29,38.018Z" transform="translate(-17.034 -22.936)" fill="#94b92d"/>
    <path id="Path_3365" data-name="Path 3365" d="M13,39.706v.631a4.9,4.9,0,0,1,.69-.219v-.674a1.923,1.923,0,0,0-.69.262Z" transform="translate(-6.552 -23.877)" fill="#94b92d"/>
    <path id="Path_3366" data-name="Path 3366" d="M41,53.328v.68c.23.017.461.036.69.058V53.39C41.47,53.367,41.242,53.347,41,53.328Z" transform="translate(-24.897 -32.974)" fill="#94b92d"/>
    <path id="Path_3367" data-name="Path 3367" d="M37,53.1v.687c.222.008.453.018.69.03v-.683Q37.356,53.113,37,53.1Z" transform="translate(-22.276 -32.823)" fill="#94b92d"/>
    <path id="Path_3368" data-name="Path 3368" d="M13,42.76V45.8c1.539-.64,5.222-.7,6.552-.7s5.013.061,6.552.7V42.76c-.359-.318-2.827-.76-6.552-.76S13.359,42.442,13,42.76Z" transform="translate(-6.552 -25.552)" />
    <path id="Path_3369" data-name="Path 3369" d="M45,53.737v.673c.237.03.469.064.69.1V53.84Q45.376,53.786,45,53.737Z" transform="translate(-27.517 -33.241)" fill="#94b92d"/>
    <path id="Path_3370" data-name="Path 3370" d="M49,55.118a4.9,4.9,0,0,1,.69.219v-.631a1.923,1.923,0,0,0-.69-.262Z" transform="translate(-30.138 -33.705)" fill="#94b92d"/>
    <ellipse id="Ellipse_53" data-name="Ellipse 53" cx="6.447" cy="0.69" rx="6.447" ry="0.69" transform="translate(6.553 21.621)" />
    <path id="Path_3371" data-name="Path 3371" d="M21,53.39v.676c.229-.022.46-.041.69-.058v-.68C21.448,53.347,21.219,53.367,21,53.39Z" transform="translate(-11.793 -32.974)" />
    <path id="Path_3372" data-name="Path 3372" d="M13.69,54.444a1.923,1.923,0,0,0-.69.262v.631a4.9,4.9,0,0,1,.69-.219Z" transform="translate(-6.552 -33.705)" />
    <path id="Path_3373" data-name="Path 3373" d="M17,53.84v.672c.221-.038.452-.072.69-.1v-.673Q17.314,53.786,17,53.84Z" transform="translate(-9.172 -33.241)" />
    <path id="Path_3374" data-name="Path 3374" d="M18.517,6.448H17.88l-.087-.216a5.169,5.169,0,0,0-9.586,0l-.087.216H7.483A4.488,4.488,0,0,0,3,10.931a4.736,4.736,0,0,0,2.98,4.42c1.044-.894,5.523-.972,7.02-.972s5.976.078,7.02.972A4.736,4.736,0,0,0,23,10.931,4.488,4.488,0,0,0,18.517,6.448ZM7.828,7.828H7.483a3.107,3.107,0,0,0-3.1,3.1H3.69A3.8,3.8,0,0,1,7.483,7.138h.345ZM11.736,4.6l-.23-.65a4.46,4.46,0,0,1,.748-.193l.114.68A3.8,3.8,0,0,0,11.736,4.6Zm4.714,2A3.806,3.806,0,0,0,13,4.379V3.69A4.5,4.5,0,0,1,17.076,6.3Zm2.068,1.236h-.69v-.69h.69a3.8,3.8,0,0,1,3.717,3.035l-.676.137A3.111,3.111,0,0,0,18.517,7.828Zm2.051,6.295-.373-.58a3.1,3.1,0,0,0,.485-.386l.48.495a3.814,3.814,0,0,1-.592.471Zm1.081-1.05-.57-.389a3.124,3.124,0,0,0,.3-.544l.635.269A3.833,3.833,0,0,1,21.649,13.072Zm-.09-1.524a3.138,3.138,0,0,0,.061-.617h.69a3.834,3.834,0,0,1-.075.753Z" transform="translate(0 0)" />
    <path id="Path_3375" data-name="Path 3375" d="M33,53.008V53.7c.2,0,.435,0,.69.01v-.688Q33.353,53.011,33,53.008Z" transform="translate(-19.655 -32.764)" />
    <path id="Path_3376" data-name="Path 3376" d="M29,53.018v.688c.254-.006.487-.008.69-.01v-.688Q29.336,53.011,29,53.018Z" transform="translate(-17.034 -32.764)" />
    <path id="Path_3377" data-name="Path 3377" d="M45,38.737v.673c.237.03.469.064.69.1V38.84Q45.376,38.786,45,38.737Z" transform="translate(-27.517 -23.414)" />
    <path id="Path_3378" data-name="Path 3378" d="M41,38.328v.68c.23.017.461.036.69.058V38.39C41.47,38.367,41.242,38.347,41,38.328Z" transform="translate(-24.897 -23.146)" />
    <path id="Path_3379" data-name="Path 3379" d="M49,40.118a4.9,4.9,0,0,1,.69.219v-.631a1.923,1.923,0,0,0-.69-.262Z" transform="translate(-30.138 -23.877)" />
    <path id="Path_3380" data-name="Path 3380" d="M25,53.132v.683c.237-.012.467-.022.69-.03V53.1Q25.334,53.113,25,53.132Z" transform="translate(-14.414 -32.823)" />
    <path id="Path_3381" data-name="Path 3381" d="M37,38.1v.687c.222.008.453.018.69.03v-.683Q37.356,38.113,37,38.1Z" transform="translate(-22.276 -22.996)" />
  </g>
</svg>
