<svg id="Group_13" data-name="Group 13" xmlns="http://www.w3.org/2000/svg" width="16.001" height="16" viewBox="0 0 16.001 16">
  <path id="Path_13" data-name="Path 13" d="M9.763,8.016l5.983-5.983a.877.877,0,0,0,0-1.238L15.221.271a.877.877,0,0,0-1.238,0L8,6.254,2.018.271a.877.877,0,0,0-1.237,0L.256.8a.876.876,0,0,0,0,1.238L6.239,8.016.256,14a.878.878,0,0,0,0,1.238l.524.524a.877.877,0,0,0,1.237,0L8,9.778l5.983,5.983a.868.868,0,0,0,.619.255h0a.868.868,0,0,0,.619-.255l.524-.524a.878.878,0,0,0,0-1.238Z" transform="translate(0 -0.016)" />
</svg>
