<svg xmlns="http://www.w3.org/2000/svg" width="17.41" height="10.813" viewBox="0 0 17.41 10.813">
  <g id="coupon" transform="translate(0 -107.355)">
    <path id="Path_3258" data-name="Path 3258" d="M16.848,107.355H3.931v.3a.281.281,0,1,1-.562,0v-.3H.562a.582.582,0,0,0-.562.6V110.6a.447.447,0,0,0,.19.375,2.133,2.133,0,0,1,.933,1.787,2.133,2.133,0,0,1-.933,1.787.447.447,0,0,0-.19.375v2.644a.582.582,0,0,0,.562.6H3.37v-.3a.281.281,0,1,1,.562,0v.3H16.848a.582.582,0,0,0,.562-.6v-9.611A.582.582,0,0,0,16.848,107.355ZM3.931,116.666a.281.281,0,1,1-.562,0v-.6a.281.281,0,1,1,.562,0Zm0-1.8a.281.281,0,1,1-.562,0v-.6a.281.281,0,1,1,.562,0Zm0-1.8a.281.281,0,1,1-.562,0v-.6a.281.281,0,1,1,.562,0Zm0-1.8a.281.281,0,1,1-.562,0v-.6a.281.281,0,1,1,.562,0Zm0-1.8a.281.281,0,1,1-.562,0v-.6a.281.281,0,1,1,.562,0Z" transform="translate(0 0)" />
    <path id="Path_3259" data-name="Path 3259" d="M144.2,133.482H132.41a.291.291,0,0,1-.281-.3v-9.01a.291.291,0,0,1,.281-.3H144.2a.291.291,0,0,1,.281.3v9.01A.291.291,0,0,1,144.2,133.482Z" transform="translate(-127.636 -15.915)" />
    <path id="Path_3260" data-name="Path 3260" d="M217.847,170.539l-1.455.977a.427.427,0,0,1-.631-.49l.419-1.783-1.319-1.179a.457.457,0,0,1,.241-.793l1.715-.124.64-1.706a.411.411,0,0,1,.78,0l.64,1.706,1.715.124a.457.457,0,0,1,.241.793l-1.319,1.179.419,1.783a.427.427,0,0,1-.631.49Z" transform="translate(-207.409 -55.703)" fill="#fff"/>
    <path id="Path_3261" data-name="Path 3261" d="M219.751,225.092a4.792,4.792,0,0,1-4.067-3.02l-.581.042a.456.456,0,0,0-.241.793l1.319,1.179-.419,1.783a.427.427,0,0,0,.631.49l1.455-.977,1.455.977a.427.427,0,0,0,.631-.49Z" transform="translate(-207.409 -110.545)" fill="#e5ffa4"/>
  </g>
</svg>
