<svg xmlns="http://www.w3.org/2000/svg" width="7.384" height="12" viewBox="0 0 7.384 12">
  <g id="Group_4977" data-name="Group 4977" transform="translate(-353 -60)">
    <path id="Icon_ionic-ios-bookmark" data-name="Icon ionic-ios-bookmark" d="M9,4.3V15.259a.115.115,0,0,0,.185.092L12.554,12.7a.234.234,0,0,1,.277,0L16.2,15.351a.115.115,0,0,0,.185-.092V4.3a.922.922,0,0,0-.923-.923H9.923A.922.922,0,0,0,9,4.3Z" transform="translate(344 56.625)" fill="#fff"/>
    <path id="Icon_ionic-ios-star" data-name="Icon ionic-ios-star" d="M7.3,5.063H5.577L5.053,3.5a.19.19,0,0,0-.356,0L4.173,5.063H2.438a.188.188,0,0,0-.188.188.138.138,0,0,0,0,.032.18.18,0,0,0,.079.132l1.417,1L3.205,7.993A.188.188,0,0,0,3.27,8.2a.181.181,0,0,0,.105.046.23.23,0,0,0,.117-.042l1.383-.986,1.383.986a.22.22,0,0,0,.117.042.168.168,0,0,0,.1-.046.186.186,0,0,0,.064-.211L6,6.413,7.405,5.4l.034-.029A.179.179,0,0,0,7.3,5.063Z" transform="translate(351.75 59.464)" />
  </g>
</svg>
