<svg xmlns="http://www.w3.org/2000/svg" width="10.334" height="19.849" viewBox="0 0 10.334 19.849">
  <path id="Icon_metro-dollar2" data-name="Icon metro-dollar2" d="M20.292,15.329a4.214,4.214,0,0,1-1.1,2.919,4.757,4.757,0,0,1-2.863,1.512V21.7a.341.341,0,0,1-.354.354h-1.5a.359.359,0,0,1-.354-.354V19.759a6.982,6.982,0,0,1-1.412-.343,6.8,6.8,0,0,1-1.944-1.025,6.313,6.313,0,0,1-.515-.415q-.138-.133-.194-.2a.336.336,0,0,1-.022-.454l1.141-1.5a.345.345,0,0,1,.255-.133.274.274,0,0,1,.266.1l.022.022A5.784,5.784,0,0,0,14.41,17.2a3.869,3.869,0,0,0,.82.089,2.686,2.686,0,0,0,1.578-.476,1.551,1.551,0,0,0,.681-1.351,1.123,1.123,0,0,0-.166-.587,2.075,2.075,0,0,0-.371-.465,3.04,3.04,0,0,0-.648-.415q-.443-.227-.731-.354t-.886-.36q-.432-.177-.681-.277t-.681-.294q-.432-.194-.692-.343t-.626-.393a3.9,3.9,0,0,1-.593-.471,6.9,6.9,0,0,1-.482-.543,2.71,2.71,0,0,1-.393-.642,4.442,4.442,0,0,1-.233-.737,3.844,3.844,0,0,1-.094-.864A3.787,3.787,0,0,1,11.3,6.036a5.068,5.068,0,0,1,2.824-1.484V2.558a.359.359,0,0,1,.354-.354h1.5a.341.341,0,0,1,.354.354V4.507a6.161,6.161,0,0,1,1.224.255,7.1,7.1,0,0,1,.964.371,5.337,5.337,0,0,1,.7.415q.332.233.432.321t.166.155a.32.32,0,0,1,.055.421l-.9,1.617a.3.3,0,0,1-.255.177.353.353,0,0,1-.3-.078q-.033-.033-.161-.133t-.432-.294a5.716,5.716,0,0,0-.648-.354,4.947,4.947,0,0,0-.825-.288,3.7,3.7,0,0,0-.947-.127,2.879,2.879,0,0,0-1.717.476A1.489,1.489,0,0,0,13.12,9.2a1.247,1.247,0,0,0,.327.46,4.881,4.881,0,0,0,.438.366,3.9,3.9,0,0,0,.62.343q.415.194.67.3t.775.3q.587.222.9.349t.842.388a6.691,6.691,0,0,1,.836.471,7.071,7.071,0,0,1,.687.554,2.868,2.868,0,0,1,.587.7,4.014,4.014,0,0,1,.349.847,3.654,3.654,0,0,1,.144,1.041Z" transform="translate(-9.957 -2.203)"/>
</svg>
