<svg xmlns="http://www.w3.org/2000/svg" width="13.5" height="13.428" viewBox="0 0 13.5 13.428">
  <g id="edit" transform="translate(0 -0.269)">
    <path id="Path_3271" data-name="Path 3271" d="M13.113,26.662a.354.354,0,0,0-.354.354v3.142A1.063,1.063,0,0,1,11.7,31.219H1.769A1.063,1.063,0,0,1,.708,30.158V20.937a1.063,1.063,0,0,1,1.062-1.062H4.911a.354.354,0,0,0,0-.708H1.769A1.771,1.771,0,0,0,0,20.937v9.221a1.771,1.771,0,0,0,1.769,1.769H11.7a1.771,1.771,0,0,0,1.769-1.769V27.016A.354.354,0,0,0,13.113,26.662Zm0,0" transform="translate(0 -18.231)" />
    <path id="Path_3272" data-name="Path 3272" d="M156.367,37.495l5.166-5.167,1.666,1.666-5.166,5.167Zm0,0" transform="translate(-150.834 -30.925)" />
    <path id="Path_3273" data-name="Path 3273" d="M132.543,199.06l1.841-.51-1.331-1.331Zm0,0" transform="translate(-127.853 -189.982)" />
    <path id="Path_3274" data-name="Path 3274" d="M318.153.527a.886.886,0,0,0-1.251,0L316.527.9l1.666,1.666.375-.375a.886.886,0,0,0,0-1.251Zm0,0" transform="translate(-305.327 0)" />
  </g>
</svg>
