<svg xmlns="http://www.w3.org/2000/svg" width="18.637" height="18.637" viewBox="0 0 18.637 18.637">
  <g id="equalizer" transform="translate(0 0)">
    <g id="Group_5170" data-name="Group 5170" transform="translate(0 6.656)">
      <g id="Group_5169" data-name="Group 5169">
        <path id="Path_3273" data-name="Path 3273" d="M17.971,172.663H7.227a2.65,2.65,0,0,0-5.136,0H.666a.666.666,0,1,0,0,1.331H2.091a2.65,2.65,0,0,0,5.136,0H17.971a.666.666,0,1,0,0-1.331Z" transform="translate(0 -170.667)" />
      </g>
    </g>
    <g id="Group_5172" data-name="Group 5172" transform="translate(0 0)">
      <g id="Group_5171" data-name="Group 5171">
        <path id="Path_3274" data-name="Path 3274" d="M17.971,2H15.88a2.65,2.65,0,0,0-5.136,0H.666a.666.666,0,1,0,0,1.331H10.744a2.65,2.65,0,0,0,5.136,0h2.091a.666.666,0,0,0,0-1.331Z" transform="translate(0 0)"/>
      </g>
    </g>
    <g id="Group_5174" data-name="Group 5174" transform="translate(0 13.312)">
      <g id="Group_5173" data-name="Group 5173">
        <path id="Path_3275" data-name="Path 3275" d="M17.971,343.331H14.548a2.65,2.65,0,0,0-5.136,0H.666a.666.666,0,1,0,0,1.331H9.413a2.65,2.65,0,0,0,5.136,0h3.422a.666.666,0,1,0,0-1.331Z" transform="translate(0 -341.334)" />
      </g>
    </g>
  </g>
</svg>
