<svg xmlns="http://www.w3.org/2000/svg" width="19.139" height="19.396" viewBox="0 0 19.139 19.396">
  <g id="noun_Add_User_1214681" data-name="noun_Add User_1214681" transform="translate(0 0.065)">
    <g id="Group_5021" data-name="Group 5021" transform="translate(0 -0.065)">
      <path id="Path_3262" data-name="Path 3262" d="M200.348,187A3.316,3.316,0,1,1,197,190.285,3.316,3.316,0,0,1,200.348,187Zm.505,4.927a.506.506,0,0,1-1.011,0v-1.074h-1.137c-.632,0-.632-1.074,0-1.074h1.137v-1.074a.506.506,0,1,1,1.011,0v1.074h1.074a.537.537,0,0,1,0,1.074h-1.074Z" transform="translate(-184.557 -175.184)"  fill-rule="evenodd"/>
      <path id="Path_3263" data-name="Path 3263" d="M8.78.066a1.929,1.929,0,0,1,2.148,1.453c1.832.063,1.832,2.716,1.263,4.169,1.453-.189.442,3.1-.379,3.032a4.808,4.808,0,0,1-1.263,2.527v.947a10.281,10.281,0,0,1,1.895.442,4.078,4.078,0,0,0-.821,2.4,4.294,4.294,0,0,0,1.453,3.221,11.779,11.779,0,0,1-4.99,1.074A11.572,11.572,0,0,1,0,16.046a3.936,3.936,0,0,1,1.263-2.274,10.856,10.856,0,0,1,4.422-1.579v-.947A4.808,4.808,0,0,1,4.421,8.719c-.821.063-1.769-3.158-.442-3.032A4.171,4.171,0,0,1,5.243.824C4.232-.819,4.99.382,8.78.066Z" transform="translate(0 0.065)"  fill-rule="evenodd"/>
    </g>
  </g>
</svg>
