<svg id="discount_2_" data-name="discount (2)" xmlns="http://www.w3.org/2000/svg" width="24.334" height="24.334" viewBox="0 0 24.334 24.334">
  <g id="Group_4877" data-name="Group 4877">
    <g id="Group_4876" data-name="Group 4876">
      <path id="Path_990" data-name="Path 990" d="M24.1,11.607,22.039,9.522l.746-2.838a.8.8,0,0,0-.56-.97l-2.831-.773L18.62,2.11a.8.8,0,0,0-.97-.56L14.812,2.3,12.727.231a.8.8,0,0,0-1.12,0L9.522,2.3,6.684,1.55a.8.8,0,0,0-.97.56L4.941,4.941,2.11,5.714a.8.8,0,0,0-.56.97L2.3,9.522.231,11.607a.8.8,0,0,0,0,1.12L2.3,14.812,1.55,17.651a.8.8,0,0,0,.56.97l2.831.773.773,2.831a.8.8,0,0,0,.97.56l2.838-.746L11.607,24.1a.8.8,0,0,0,1.12,0l2.085-2.065,2.838.746a.8.8,0,0,0,.97-.56l.773-2.831,2.831-.773a.8.8,0,0,0,.56-.97l-.746-2.838L24.1,12.727A.8.8,0,0,0,24.1,11.607Zm-3.515,2.408a.8.8,0,0,0-.2.762l.661,2.516-2.509.685a.8.8,0,0,0-.558.558l-.685,2.509-2.516-.661a.8.8,0,0,0-.762.2l-1.848,1.83-1.848-1.83a.8.8,0,0,0-.762-.2l-2.516.661-.685-2.509a.8.8,0,0,0-.558-.558l-2.509-.685.661-2.516a.8.8,0,0,0-.2-.762l-1.83-1.848,1.83-1.848a.8.8,0,0,0,.2-.762L3.289,7.041,5.8,6.356A.8.8,0,0,0,6.356,5.8l.685-2.509,2.516.661a.8.8,0,0,0,.762-.2l1.848-1.83,1.848,1.83a.8.8,0,0,0,.762.2l2.516-.661L17.978,5.8a.8.8,0,0,0,.558.558l2.509.685-.661,2.516a.8.8,0,0,0,.2.762l1.83,1.848Z" transform="translate(0 0)" fill="#94b92d"/>
    </g>
  </g>
  <g id="Group_4879" data-name="Group 4879" transform="translate(6.84 6.84)">
    <g id="Group_4878" data-name="Group 4878">
      <path id="Path_991" data-name="Path 991" d="M135.119,133.229a1.889,1.889,0,1,0,1.889,1.889A1.891,1.891,0,0,0,135.119,133.229Zm0,2.645a.756.756,0,1,1,.756-.756A.757.757,0,0,1,135.119,135.874Z" transform="translate(-133.23 -133.229)" fill="#140056"/>
    </g>
  </g>
  <g id="Group_4881" data-name="Group 4881" transform="translate(13.716 13.715)">
    <g id="Group_4880" data-name="Group 4880">
      <path id="Path_992" data-name="Path 992" d="M269.051,267.161a1.889,1.889,0,1,0,1.889,1.889A1.891,1.891,0,0,0,269.051,267.161Zm0,2.645a.756.756,0,1,1,.756-.756A.757.757,0,0,1,269.051,269.806Z" transform="translate(-267.162 -267.161)" fill="#140056"/>
    </g>
  </g>
  <g id="Group_4883" data-name="Group 4883" transform="translate(8.955 8.955)">
    <g id="Group_4882" data-name="Group 4882">
      <path id="Path_993" data-name="Path 993" d="M167.389,161.3a.567.567,0,0,0-.8,0l-5.29,5.29a.567.567,0,1,0,.8.8l5.29-5.29A.567.567,0,0,0,167.389,161.3Z" transform="translate(-161.132 -161.132)" fill="#140056"/>
    </g>
  </g>
</svg>
