<svg xmlns="http://www.w3.org/2000/svg" width="57.004" height="50.813" viewBox="0 0 57.004 50.813">
  <g id="credit-cards-payment" transform="translate(0 -33.234)">
    <g id="Group_5072" data-name="Group 5072" transform="translate(0 33.234)">
      <path id="Path_3275" data-name="Path 3275" d="M210.589,40.682l-34.912-7.388a2.753,2.753,0,0,0-3.254,2.118l-.663,4.262L212.043,48.2l.663-4.262A2.753,2.753,0,0,0,210.589,40.682Z" transform="translate(-155.761 -33.234)" fill="#fff"/>
      <path id="Path_3276" data-name="Path 3276" d="M40.146,170.526a2.779,2.779,0,0,0-3.41-1.929l-6.628,1.84L14.484,167.13l-1.718,8.119-10.736,2.98A2.779,2.779,0,0,0,.1,181.639l6.051,21.8a2.779,2.779,0,0,0,3.41,1.929l34.707-9.631a2.779,2.779,0,0,0,1.929-3.411l-1.039-3.743,3.892.823a2.752,2.752,0,0,0,3.254-2.117l2.463-11.637-14.021-2.967Zm4.008,11.081.858-4.057a1.133,1.133,0,0,1,1.338-.871l4.057.859a1.133,1.133,0,0,1,.871,1.338l-.858,4.057a1.133,1.133,0,0,1-1.338.871l-4.057-.858A1.133,1.133,0,0,1,44.154,181.607ZM2.633,180.4l9.6-2.664L34.9,171.451l2.439-.678a.507.507,0,0,1,.132-.018.524.524,0,0,1,.5.374l.286,1.031.9,3.232L3.46,185.3l-1.183-4.263A.519.519,0,0,1,2.633,180.4ZM44.02,192.932a.521.521,0,0,1-.356.631L8.958,203.194a.5.5,0,0,1-.132.018.524.524,0,0,1-.5-.375L4.8,190.12l35.692-9.905,2.177,7.844Z" transform="translate(0 -154.658)" fill="#fff"/>
      <path id="Path_3277" data-name="Path 3277" d="M95.328,445.429a1.133,1.133,0,0,0-1.39-.786l-4.053,1.125a1.132,1.132,0,0,0-.786,1.39l1.125,4.053a1.132,1.132,0,0,0,1.39.786l4.053-1.125a1.133,1.133,0,0,0,.786-1.39Z" transform="translate(-80.762 -406.285)" fill="#fff"/>
    </g>
  </g>
</svg>
