<svg xmlns="http://www.w3.org/2000/svg" width="11" height="11" viewBox="0 0 11 11">
  <g id="discount_3_" data-name="discount (3)" transform="translate(-0.01 0)">
    <path id="Path_1025" data-name="Path 1025" d="M10.5,5.5l.483-1.259a.344.344,0,0,0-.1-.39L9.836,3,9.624,1.671a.344.344,0,0,0-.286-.285L8.007,1.174,7.159.127a.344.344,0,0,0-.39-.1L5.51.506,4.251.023a.343.343,0,0,0-.39.1L3.013,1.174l-1.332.212a.344.344,0,0,0-.285.285L1.185,3,.138,3.851a.344.344,0,0,0-.1.39L.516,5.5.033,6.759a.343.343,0,0,0,.1.39L1.185,8,1.4,9.328a.344.344,0,0,0,.285.286l1.332.212.848,1.046a.342.342,0,0,0,.39.1l1.258-.482,1.259.483a.344.344,0,0,0,.39-.105l.848-1.046,1.332-.212a.344.344,0,0,0,.286-.286L9.836,8l1.046-.848a.343.343,0,0,0,.1-.39Z" transform="translate(0 0)" />
    <g id="Group_4922" data-name="Group 4922" transform="translate(3.448 2.75)">
      <path id="Path_1026" data-name="Path 1026" d="M161.053,130.1a1.031,1.031,0,1,1,1.031-1.031A1.032,1.032,0,0,1,161.053,130.1Zm0-1.375a.344.344,0,1,0,.344.344A.344.344,0,0,0,161.053,128.722Z" transform="translate(-160.022 -128.035)" fill="#fafafa"/>
      <path id="Path_1027" data-name="Path 1027" d="M257.053,290.1a1.031,1.031,0,1,1,1.031-1.031A1.032,1.032,0,0,1,257.053,290.1Zm0-1.375a.344.344,0,1,0,.344.344A.345.345,0,0,0,257.053,288.722Z" transform="translate(-253.96 -284.597)" fill="#fafafa"/>
      <path id="Path_1028" data-name="Path 1028" d="M160.38,133.517a.344.344,0,0,1-.279-.544l3.437-4.812a.344.344,0,0,1,.56.4l-3.437,4.812A.345.345,0,0,1,160.38,133.517Z" transform="translate(-160.036 -128.017)" fill="#fafafa"/>
    </g>
  </g>
</svg>
