<svg xmlns="http://www.w3.org/2000/svg" width="9" height="9" viewBox="0 0 9 9">
  <g id="signs" transform="translate(0 -0.002)">
    <g id="Group_41" data-name="Group 41" transform="translate(0 0.002)">
      <path id="Path_516" data-name="Path 516" d="M8.507,3.8H5.2V.5A.5.5,0,0,0,4.712,0H4.289A.5.5,0,0,0,3.8.5V3.8H.492A.492.492,0,0,0,0,4.29v.425a.491.491,0,0,0,.492.49H3.8v3.31A.488.488,0,0,0,4.289,9h.423A.487.487,0,0,0,5.2,8.516V5.205h3.3A.491.491,0,0,0,9,4.715V4.29A.492.492,0,0,0,8.507,3.8Z" transform="translate(0 -0.002)" fill="#fff"/>
    </g>
  </g>
</svg>
