<svg xmlns="http://www.w3.org/2000/svg" width="33" height="33" viewBox="0 0 33 33">
  <g id="Group_5266" data-name="Group 5266" transform="translate(-16 -56)">
    <circle id="Ellipse_6" data-name="Ellipse 6" cx="16.5" cy="16.5" r="16.5" transform="translate(16 56)" fill="#fff"/>
    <g id="female-user" transform="translate(-3.821 59.999)">
      <g id="Group_36" data-name="Group 36" transform="translate(27.821 2.903)">
        <rect id="Rectangle_23" data-name="Rectangle 23" width="3.528" height="3.951" transform="translate(6.808 14.888)" fill="#fdcc9b"/>
        <path id="Path_502" data-name="Path 502" d="M84.551,148.7a5.919,5.919,0,0,0,3.528.726V148.23H84.551Z" transform="translate(-77.742 -133.342)" fill="#fcbc85"/>
        <ellipse id="Ellipse_7" data-name="Ellipse 7" cx="1.721" cy="1.964" rx="1.721" ry="1.964" transform="translate(0 6.797)" fill="#fcbc85"/>
        <ellipse id="Ellipse_8" data-name="Ellipse 8" cx="1.721" cy="1.964" rx="1.721" ry="1.964" transform="translate(13.702 6.797)" fill="#fcbc85"/>
        <path id="Path_503" data-name="Path 503" d="M55.859,29.194c0-2.893-2.117-5.01-6.844-5.01s-6.844,2.117-6.844,5.01-.494,10.513,6.844,10.513S55.859,32.086,55.859,29.194Z" transform="translate(-40.443 -24.184)" fill="#fdcc9b"/>
        <g id="Group_35" data-name="Group 35" transform="translate(3.981 5.31)">
          <g id="Group_33" data-name="Group 33" transform="translate(0.517 2.17)">
            <ellipse id="Ellipse_9" data-name="Ellipse 9" cx="0.741" cy="0.811" rx="0.741" ry="0.811" fill="#3b2519"/>
            <circle id="Ellipse_10" data-name="Ellipse 10" cx="0.222" cy="0.222" r="0.222" transform="translate(0.196 0.232)" fill="#fff"/>
          </g>
          <path id="Path_504" data-name="Path 504" d="M61.067,69.394c.35.175.913-.6,2.2.075.235.122.375-1.045-1.005-1.045C61.067,68.424,60.855,69.288,61.067,69.394Z" transform="translate(-60.995 -68.424)" fill="#51362a"/>
          <g id="Group_34" data-name="Group 34" transform="translate(7.275 2.17)">
            <ellipse id="Ellipse_11" data-name="Ellipse 11" cx="0.741" cy="0.811" rx="0.741" ry="0.811" fill="#3b2519"/>
            <circle id="Ellipse_12" data-name="Ellipse 12" cx="0.222" cy="0.222" r="0.222" transform="translate(0.196 0.232)" fill="#fff"/>
          </g>
          <path id="Path_505" data-name="Path 505" d="M119.66,69.394c-.35.175-.913-.6-2.2.075-.235.122-.375-1.045,1.005-1.045C119.66,68.424,119.872,69.288,119.66,69.394Z" transform="translate(-110.55 -68.424)" fill="#51362a"/>
        </g>
        <path id="Path_506" data-name="Path 506" d="M90.647,114.443c-.732,0-1.173-.547-1.173-.282s.212.767,1.173.767,1.173-.5,1.173-.767S91.379,114.443,90.647,114.443Z" transform="translate(-82.075 -103.299)" fill="#fcbc85"/>
        <path id="Path_507" data-name="Path 507" d="M96.273,136.414c-.253,0-.406-.189-.406-.1s.073.265.406.265.406-.174.406-.265S96.526,136.414,96.273,136.414Z" transform="translate(-87.7 -122.837)" fill="#fcbc85"/>
        <path id="Path_508" data-name="Path 508" d="M85.614,128.967a9.569,9.569,0,0,1-1.859-.353c0,.12.336.591,1.859.591s1.859-.471,1.859-.591A9.572,9.572,0,0,1,85.614,128.967Z" transform="translate(-77.042 -116.064)" fill="#f7945e"/>
      </g>
      <path id="Path_509" data-name="Path 509" d="M36.393,161.458V165.9H27.821C27.821,164.1,32.336,161.458,36.393,161.458Z" transform="translate(0 -142.08)" fill="#f7941e"/>
      <path id="Path_510" data-name="Path 510" d="M99.248,161.458V165.9h8.572C107.82,164.1,103.305,161.458,99.248,161.458Z" transform="translate(-62.855 -142.08)" fill="#f7941e"/>
      <path id="Path_511" data-name="Path 511" d="M80.162,161.458a11.227,11.227,0,0,0-2.6.326,3.487,3.487,0,0,0,2.6,1.226,3.87,3.87,0,0,0,2.7-1.2A11.285,11.285,0,0,0,80.162,161.458Z" transform="translate(-43.769 -142.08)" fill="#f36c21"/>
      <path id="Path_512" data-name="Path 512" d="M84.55,160.569a2.751,2.751,0,0,0,3.528,0A5.577,5.577,0,0,0,84.55,160.569Z" transform="translate(-49.921 -141.037)" fill="#fdcc9b"/>
      <path id="Path_513" data-name="Path 513" d="M48.16,2.286S45.62-.942,40.34.275s-5.675,4.392-5.516,7.481.582,4.9,1.083,4.678.24-2.263.293-2.734.529-2.6,3.74-2.281a13.282,13.282,0,0,0,5.916-.847,6.653,6.653,0,0,0,1.806,1.641c1.432.527.963,4.041,1.524,4.041S52.5,4.138,48.16,2.286Z" transform="translate(-6.139)" fill="#51362a"/>
    </g>
  </g>
</svg>
