<svg xmlns="http://www.w3.org/2000/svg" width="13.305" height="13.313" viewBox="0 0 13.305 13.313">
  <g id="restaurant" transform="translate(-0.153)">
    <g id="Group_4958" data-name="Group 4958" transform="translate(0.894)">
      <g id="Group_4957" data-name="Group 4957">
        <path id="Path_1034" data-name="Path 1034" d="M40.858,11.32,35.638,6.1,29.539,0h-.477l-.1.247a4.373,4.373,0,0,0-.317,1.931,2.727,2.727,0,0,0,.764,1.742l4.761,4.761.628-.628,4.4,4.922a1.171,1.171,0,1,0,1.655-1.655Z" transform="translate(-28.636)" fill="#29335c"/>
      </g>
    </g>
    <g id="Group_4960" data-name="Group 4960" transform="translate(0.153 7.578)">
      <g id="Group_4959" data-name="Group 4959" transform="translate(0)">
        <path id="Path_1035" data-name="Path 1035" d="M4.224,291.442.5,295.171a1.171,1.171,0,0,0,1.655,1.655L5.88,293.1Z" transform="translate(-0.153 -291.442)" fill="#29335c"/>
      </g>
    </g>
    <g id="Group_4962" data-name="Group 4962" transform="translate(7.283 0.009)">
      <g id="Group_4961" data-name="Group 4961">
        <path id="Path_1036" data-name="Path 1036" d="M279.968,2.568l-2.115,2.115-.552-.552,2.115-2.115-.552-.552L276.749,3.58l-.552-.552L278.312.913l-.552-.552L275,3.12a1.948,1.948,0,0,0-.568,1.262,1.124,1.124,0,0,1-.08.352l1.792,1.792a1.123,1.123,0,0,1,.352-.08,1.947,1.947,0,0,0,1.262-.568L280.52,3.12Z" transform="translate(-274.354 -0.361)" fill="#29335c"/>
      </g>
    </g>
  </g>
</svg>
