<svg id="search-engine" xmlns="http://www.w3.org/2000/svg" width="17.251" height="17.25" viewBox="0 0 17.251 17.25">
  <rect id="Rectangle_155" data-name="Rectangle 155" width="0.575" height="3.58" transform="translate(8.421 8.829) rotate(-45)" fill="#ece7ea"/>
  <ellipse id="Ellipse_14" data-name="Ellipse 14" cx="5.317" cy="5.317" rx="5.317" ry="5.317" transform="translate(0 0)" fill="#b5b5b5"/>
  <circle id="Ellipse_15" data-name="Ellipse 15" cx="4.178" cy="4.178" r="4.178" transform="translate(1.139 1.139)" fill="#ece7ea"/>
  <path id="Path_996" data-name="Path 996" d="M286.9,61.194a.287.287,0,0,0,.2-.491,3.3,3.3,0,0,0-4.673,0,.287.287,0,1,0,.407.407,2.729,2.729,0,0,1,3.86,0A.287.287,0,0,0,286.9,61.194Z" transform="translate(-279.447 -57.722)" fill="#fff"/>
  <path id="Path_997" data-name="Path 997" d="M0,325.271l4.435,4.435c.462.462.941.192,1.4-.27s.732-.941.27-1.4L1.673,323.6l-1.379.294Z" transform="translate(10.903 -312.695)" fill="#29335c"/>
  <path id="Path_998" data-name="Path 998" d="M139.091,299.3l.54.54,1.673-1.673-.54-.54a1.183,1.183,0,1,0-1.673,1.673Z" transform="translate(-128.729 -287.265)" fill="#c2b8b9"/>
</svg>
