<svg xmlns="http://www.w3.org/2000/svg" width="16" height="16.001" viewBox="0 0 16 16.001">
  <g id="noun_Settings_1929572" transform="translate(-271 -74)">
    <g id="Group_5023" data-name="Group 5023" transform="translate(265.997 68.999)">
      <path id="Path_3266" data-name="Path 3266" d="M34.31,31.283a3.33,3.33,0,1,0,3.607,3.027A3.329,3.329,0,0,0,34.31,31.283Z" transform="translate(-21.596 -21.599)" fill="none"/>
      <path id="Path_3267" data-name="Path 3267" d="M24.908,19.481a5.426,5.426,0,1,0,5.426,5.426A5.432,5.432,0,0,0,24.908,19.481Zm0,10.188a4.762,4.762,0,1,1,4.762-4.762A4.767,4.767,0,0,1,24.908,29.669Z" transform="translate(-11.904 -11.906)" fill="none"/>
      <path id="Path_3268" data-name="Path 3268" d="M27.981,23.218a4.762,4.762,0,1,0,4.762,4.762A4.767,4.767,0,0,0,27.981,23.218ZM28.27,31.3A3.33,3.33,0,1,1,31.3,27.69,3.33,3.33,0,0,1,28.27,31.3Z" transform="translate(-14.977 -14.978)" />
      <path id="Path_3269" data-name="Path 3269" d="M20.748,13.546l-.709-.343a.594.594,0,0,1-.3-.479s0-.092-.02-.307l-.006-.074c-.01-.081.108-.227.263-.325l.668-.421a.487.487,0,0,0,.2-.5l-.395-1.209a.486.486,0,0,0-.456-.286l-.79.057a.564.564,0,0,1-.483-.222c-.082-.136-.253-.609-.167-.771l.367-.7a.484.484,0,0,0-.08-.532l-.948-.848a.485.485,0,0,0-.538-.02l-.653.443a.563.563,0,0,1-.528.049c-.139-.076-.524-.4-.531-.586L15.6,5.685a.485.485,0,0,0-.335-.421L14.024,5a.484.484,0,0,0-.475.251l-.343.71a.594.594,0,0,1-.479.3s-.092,0-.307.02l-.075.007c-.081.01-.227-.109-.324-.264L11.6,5.364a.486.486,0,0,0-.5-.2l-1.21.395a.485.485,0,0,0-.286.455l.057.79a.565.565,0,0,1-.223.483c-.136.082-.608.253-.771.168l-.7-.367a.485.485,0,0,0-.532.079l-.848.949a.485.485,0,0,0-.02.537l.443.654a.562.562,0,0,1,.048.528c-.076.139-.4.523-.586.531l-.788.031a.486.486,0,0,0-.421.335l-.259,1.247a.486.486,0,0,0,.252.475l.71.343a.592.592,0,0,1,.3.479s0,.092.02.307l.007.075c.01.081-.109.227-.264.325l-.668.422a.485.485,0,0,0-.2.5l.395,1.209a.486.486,0,0,0,.456.286l.789-.057a.563.563,0,0,1,.483.222c.082.135.253.609.168.771l-.367.7a.485.485,0,0,0,.08.532l.949.849a.486.486,0,0,0,.538.02l.653-.443a.56.56,0,0,1,.528-.048c.139.076.523.4.531.586l.031.788a.486.486,0,0,0,.335.421L11.983,21a.486.486,0,0,0,.475-.251l.344-.71a.6.6,0,0,1,.479-.3s.092,0,.307-.019l.074-.006c.081-.011.227.108.324.263l.422.669a.484.484,0,0,0,.5.2l1.21-.4a.485.485,0,0,0,.286-.455l-.057-.79a.565.565,0,0,1,.223-.483c.135-.083.609-.253.771-.168l.7.367a.485.485,0,0,0,.532-.08l.848-.949a.485.485,0,0,0,.02-.537L19,16.693a.561.561,0,0,1-.049-.528c.076-.139.4-.524.586-.531l.787-.03a.485.485,0,0,0,.421-.335L21,14.022A.487.487,0,0,0,20.748,13.546ZM13,18.427A5.426,5.426,0,1,1,18.43,13,5.432,5.432,0,0,1,13,18.427Z" />
    </g>
  </g>
</svg>
