<?xml version="1.0" encoding="utf-8"?>
<!-- Generator: Adobe Illustrator 23.0.5, SVG Export Plug-In . SVG Version: 6.00 Build 0)  -->
<svg version="1.1" id="Group_6594" xmlns="http://www.w3.org/2000/svg" xmlns:xlink="http://www.w3.org/1999/xlink" x="0px" y="0px"
	 viewBox="0 0 446.2 478.1" style="enable-background:new 0 0 446.2 478.1;" xml:space="preserve">
<style type="text/css">
	
</style>
<g id="Group_6595">
	<path class="st0" d="M413.9,130.4c2.6-19.3-5.9-39.3-23.4-50.5c-8.4-5.4-18.1-8.2-28-8.2c-14.6,0-27.7,6-37.1,15.6
		c1.8-5.3,1.7-11.2-0.5-16.6c12.7-3.4,20.3-16.5,16.9-29.2c-2.8-10.5-12.3-17.7-23.1-17.7l0,0c-3.8,0-7.5,1-10.9,2.7
		c-7.2-16-26-23.1-42-15.9c-7,3.2-12.7,8.8-15.9,15.9c-11.6-6.1-25.9-1.7-32.1,9.9c-3.7,6.9-3.7,15.2,0,22.2
		c-15.9,7.2-23.1,25.9-15.9,41.8c1.9,4.2,4.7,8,8.2,11c-7.8,6.5-11.7,16.2-10.9,26l-56.4-97.7C125.2,9.4,86.3-1.1,55.8,16.5
		c-10.2,5.9-15.9,16.6-15.9,27.6c0,5.4,1.4,10.9,4.3,15.9l52.4,90.7l-0.9,0.6l-47.8-31.9v71.7H23.9v31.9h8v41.2
		c0,14.4-5.7,28.3-15.9,38.5C5.7,313,0,326.9,0,341.3v128.8h430.3V119.5L413.9,130.4z M23.9,341.3c0-14.4,5.7-28.3,15.9-38.5
		c10.2-10.2,15.9-24,15.9-38.5c0-10.6,6.6-19.7,15.9-23.5v23.5c0,14.4,5.7,28.3,16,38.5c10.2,10.2,15.9,24,15.9,38.5v17.3h-78
		C24.5,352.9,23.9,347.2,23.9,341.3z M62,414.3h18.3c0.4,3.5,1.1,7.1,2,10.5C75,422.2,68.2,418.6,62,414.3z M198.1,325.1
		c5.6-5.7,9.1-13.6,9.1-22.3h-23.9c-1.3,0-2.5,0.1-3.8,0.2c-22.7-31.4-36.1-70-36.1-111.8v-71.7l47.8,31.9l9.6-6.4l2-1.3l36.2-24.2
		l47.8,31.9l15.7-10.5c-0.2-1.9-0.6-3.8-1.3-5.6c0.5,0,1,0.2,1.5,0.2c3.2,0,6.2-0.6,9-1.7c0.1,0.3,0.1,0.6,0.2,0.9l22.7-15.1v262.9
		C281.1,382.5,232.8,360.5,198.1,325.1z"/>
</g>
<g id="Group_6596">
	<path id="Path_4390" class="st1" d="M442,112.5c-2.6-1.4-5.7-1.2-8.2,0.4l-4.1,2.7c-1.7-12.9-7.6-24.9-16.7-34.1
		c1.9-0.6,3.9-1,5.8-1.3l4.5-0.6c4.4-0.6,7.4-4.6,6.9-8.9c-0.6-4.4-4.6-7.4-8.9-6.9c0,0-0.1,0-0.1,0l-4.6,0.6
		c-6.6,0.9-12.9,2.9-18.8,6c-14.1-7.3-30.5-8.7-45.6-3.9c4.1-5.4,6.3-12,6.3-18.8c0-17.6-14.3-31.9-31.9-31.9l0,0
		c-2.5,0-5,0.3-7.4,0.9C306.7-1.1,281.9-5.4,264,7.3c-3.7,2.6-7,5.9-9.6,9.6c-2.4-0.6-4.9-0.9-7.4-0.9c-17.6,0-31.9,14.3-31.9,31.9
		l0,0c0,2.5,0.3,5,0.9,7.4c-17.9,12.5-22.2,37.2-9.7,55c0.3,0.4,0.6,0.9,1,1.3c-1.1,1.5-2.2,3.2-3.1,4.8l-38.5-66.7l-8-13.8
		C138,1.6,94.1-10.2,59.8,9.6c0,0,0,0,0,0c-19,11-25.6,35.4-14.6,54.4l36.5,63.1l-21.4-14.3c-3.7-2.4-8.6-1.5-11.1,2.2
		c-0.9,1.3-1.3,2.8-1.3,4.4v63.7H31.9c-4.4,0-8,3.6-8,8l0,0v31.9c0,4.4,3.6,8,8,8h0v33.2c0,12.3-4.9,24.2-13.6,32.8
		C6.5,308.8,0,324.7,0,341.3v128.8c0,4.4,3.6,8,8,8h111.5c2.1,0,4.2-0.9,5.7-2.4c3.2,1.5,6.7,2.4,10.3,2.4c8.4,0,16.7-2.3,23.9-6.5
		c7.2,4.3,15.5,6.5,23.9,6.5h255c4.4,0,8-3.6,8-8V119.5C446.2,116.6,444.6,113.9,442,112.5L442,112.5z M390.4,433.6l28.6,28.6h-57.1
		L390.4,433.6z M398.4,419v-44.5c0-4.4-3.7-7.9-8.1-7.9c-4.3,0-7.8,3.5-7.9,7.9V419l-31.9,31.9V134.4l31.9,21.2V255
		c0,4.4,3.5,8,7.9,8.1s8-3.5,8.1-7.9c0-0.1,0-0.1,0-0.2v-99.3l31.9-21.2v316.5L398.4,419z M383.2,81.6c-2.9,3-5.4,6.4-7.6,9.9
		c-2.3,3.8-1,8.7,2.7,10.9s8.7,1,10.9-2.7c2.3-3.9,5.3-7.4,8.8-10.3c10.3,8.3,16.3,20.8,16.3,34.1c0,0.9-0.1,1.7-0.2,2.5l-23.7,15.8
		L347,112.9c-1.3-0.9-2.9-1.3-4.4-1.3c0-5.6-1.5-11.1-4.4-15.9c0.7-1.2,1.3-2.3,1.8-3.6C351.4,81,368,77,383.2,81.6L383.2,81.6z
		 M229.1,66c4-1.8,5.8-6.6,3.9-10.6c-0.1-0.1-0.1-0.2-0.2-0.3c-1.2-2.2-1.8-4.7-1.9-7.2c0.1-8.8,7.2-15.9,16-15.8
		c2.5,0,4.9,0.6,7.1,1.7c3.9,2,8.7,0.5,10.7-3.4c0.1-0.1,0.1-0.2,0.2-0.3c5.4-12,19.5-17.3,31.5-11.9c5.3,2.4,9.5,6.6,11.9,11.9
		c0.9,2,2.6,3.5,4.6,4.2c2.1,0.7,4.3,0.5,6.3-0.5c7.8-4.1,17.3-1.1,21.4,6.7s1.1,17.3-6.7,21.4c-1.1,0.6-2.2,1-3.3,1.3
		c-4.2,1.2-6.8,5.5-5.6,9.8c0.1,0.3,0.2,0.6,0.3,0.9c0.8,1.9,1.2,3.9,1.2,5.9c0,3.9-1.5,7.7-4.2,10.6c-2.7,3-2.7,7.6,0,10.7
		c5.9,6.4,5.5,16.5-1,22.4c-2.9,2.7-6.7,4.1-10.6,4.2c-0.2,0-1.1-0.1-1.3-0.1c-4.4-0.3-8.1,3-8.4,7.4c-0.1,0.9,0,1.7,0.3,2.6
		l-6.8,4.5l-32.4-21.6c9.2-17,24-30.2,42-37.4c4.1-1.7,6-6.4,4.2-10.4c-1.7-3.9-6.2-5.9-10.2-4.4c-9.1,3.7-17.7,8.7-25.3,15
		c0.7-9.8-0.1-19.6-2.4-29.2c-1.1-4.3-5.4-6.9-9.7-5.8c-4.3,1.1-6.9,5.4-5.8,9.7l0,0c4.6,18.2,2.3,37.5-6.4,54.1
		c-2.1-0.5-4.4-0.1-6.2,1.1l-26.9,18c1-5.2,3.8-9.9,7.8-13.3c3.3-2.9,3.6-7.9,0.7-11.2c-0.2-0.2-0.5-0.5-0.7-0.7
		c-5.3-4.5-8.3-11.1-8.3-18C215.2,78.3,220.6,69.8,229.1,66L229.1,66z M200.1,141.2l-0.9,0.6l-43.4-28.9c-0.7-0.5-1.4-0.8-2.2-1
		l22.2-12.8L200.1,141.2z M67.7,23.4c26.7-15.4,60.8-6.3,76.2,20.4l4,6.9l-27.6,15.9c-3.8,2.2-5.1,7.1-2.9,10.9s7.1,5.1,10.9,2.9
		l0,0l27.6-15.9l12,20.7l-27.6,15.9c-3.8,2.2-5.1,7.1-2.8,10.9c1.1,1.9,3,3.3,5.2,3.8l-35.4,23.6L59,56.1
		C52.4,44.7,56.3,30,67.7,23.4C67.7,23.4,67.7,23.4,67.7,23.4z M63.7,134.4L99.2,158c2.7,1.8,6.2,1.8,8.8,0l43.4-28.9l43.4,28.9
		c2.7,1.8,6.2,1.8,8.8,0l43.4-28.9l43.4,28.9c2.7,1.8,6.2,1.8,8.8,0l35.4-23.6v327.7H209c13.1-18.8,20.7-40.9,22.1-63.7
		c0-26.4-21.4-47.8-47.8-47.8c-5.7,0-11.4,1.1-16.8,3.2c-0.6-3.8-1.5-7.5-2.8-11.2h19.6c22,0,39.8-17.8,39.8-39.8c0-4.4-3.6-8-8-8
		h-23.9c-17.9,0-33.5,12-38.2,29.2c-3.8-4.6-8.2-8.6-13.1-12c-3.7-2.4-8.6-1.5-11.1,2.2s-1.5,8.6,2.2,11.1l0,0
		c9.7,6.5,16.5,16.4,19.1,27.7c-4.7-1.6-9.7-2.4-14.7-2.5c-2.7,0-5.3,0.3-8,0.7v-10c0-16.6-6.5-32.4-18.3-44.1
		c-8.7-8.7-13.6-20.5-13.6-32.8v-33.2c4.4,0,8-3.6,8-8l0,0v-31.9c0-4.4-3.6-8-8-8c0,0,0,0,0,0H63.7V134.4z M168.7,326.7
		c3.4-9.5,12.4-15.9,22.5-15.9h14.6c-3.4,9.5-12.4,15.9-22.5,15.9H168.7z M88.2,406.4H15.9v-39.8h84c-7.9,8.7-12.3,20.1-12.3,31.9
		C87.7,401.1,87.9,403.7,88.2,406.4L88.2,406.4z M39.8,199.2h47.8v15.9H39.8V199.2z M29.5,308.4c11.7-11.7,18.3-27.6,18.3-44.1
		v-33.2h31.9v33.2c0,16.6,6.5,32.4,18.3,44.1c8.7,8.7,13.6,20.5,13.6,32.8v9.3H15.9v-9.3C15.9,328.9,20.8,317.1,29.5,308.4
		L29.5,308.4z M15.9,422.3h75.5c3.6,14.3,9.8,27.8,18.3,39.8H15.9L15.9,422.3z M164.1,455.6c-2.8-2.1-6.8-2.1-9.6,0
		c-5.5,4.2-12.2,6.5-19.1,6.5c-14.3,0-31.9-42.7-31.9-63.7c0-17.6,14.3-31.9,31.9-31.9l0,0c6.9,0,13.6,2.3,19.1,6.5
		c2.8,2.1,6.8,2.1,9.6,0c5.5-4.2,12.2-6.5,19.1-6.5c17.6,0,31.9,14.3,31.9,31.9l0,0c0,21.1-17.5,63.7-31.9,63.7
		C176.3,462.1,169.6,459.8,164.1,455.6z"/>
	<path id="Path_4391" class="st1" d="M390.4,294.8c-4.4,0-8,3.6-8,8v31.9c0,4.4,3.5,8,7.9,8.1s8-3.5,8.1-7.9c0-0.1,0-0.1,0-0.2
		v-31.9C398.4,298.4,394.8,294.8,390.4,294.8z"/>
	<path id="Path_4392" class="st1" d="M223.1,215.2h71.7c4.4,0,7.9-3.7,7.9-8.1c0-4.3-3.5-7.8-7.9-7.9h-71.7c-4.4,0-8,3.5-8.1,7.9
		s3.5,8,7.9,8.1C223,215.2,223,215.2,223.1,215.2z"/>
	<path id="Path_4393" class="st1" d="M294.8,239.1H247c-4.4,0-8,3.5-8.1,7.9s3.5,8,7.9,8.1c0.1,0,0.1,0,0.2,0h47.8
		c4.4,0,7.9-3.7,7.9-8.1C302.6,242.6,299.1,239.1,294.8,239.1z"/>
</g>
</svg>
