<svg xmlns="http://www.w3.org/2000/svg" width="67" height="58" viewBox="0 0 67 58">
  <g id="Group_5212" data-name="Group 5212" transform="translate(-202 -352)">
    <path id="Polygon_3" data-name="Polygon 3" d="M24.841,14.992a10,10,0,0,1,17.319,0L58.335,43a10,10,0,0,1-8.659,15H17.324A10,10,0,0,1,8.665,43Z" transform="translate(269 410) rotate(180)" fill="#f4f7f9"/>
    <g id="bolt_1_" data-name="bolt (1)" transform="translate(215.462 365.45)">
      <path id="Path_1010" data-name="Path 1010" d="M27.874,13.077a.4.4,0,0,0-.359-.229h-5.04l.877-11.422a.395.395,0,0,0-.7-.286L12.632,12.988a.395.395,0,0,0,.3.65h5.042L17.1,25.06a.4.4,0,0,0,.244.395.391.391,0,0,0,.15.03.4.4,0,0,0,.3-.14L27.817,13.5a.4.4,0,0,0,.057-.421ZM17.978,23.9l.817-10.63a.395.395,0,0,0-.395-.425H13.787L22.471,2.583l-.817,10.63a.395.395,0,0,0,.395.425h4.617Z" transform="translate(0)" fill="#94b92d" stroke="#94b92d" stroke-width="0.5"/>
      <path id="Path_1011" data-name="Path 1011" d="M26.482,13.121a.4.4,0,0,0-.556.046l-4.669,5.518a.395.395,0,0,0,.3.65h1.885a.395.395,0,1,0,0-.79H22.41l4.119-4.868A.4.4,0,0,0,26.482,13.121Z" transform="translate(-5.219 -7.277)" fill="#140056"/>
      <path id="Path_1012" data-name="Path 1012" d="M29.395,27.79h.395a.395.395,0,1,0,0-.79h-.395a.395.395,0,1,0,0,.79Z" transform="translate(-9.961 -15.732)" fill="#140056"/>
      <path id="Path_1013" data-name="Path 1013" d="M31.939,35.422a.4.4,0,0,0,.395.395h1.033l-4.119,4.868a.395.395,0,1,0,.6.51l4.669-5.518a.395.395,0,0,0-.3-.65H32.334A.4.4,0,0,0,31.939,35.422Z" transform="translate(-10.05 -20.589)" fill="#140056"/>
    </g>
  </g>
</svg>
