<svg xmlns="http://www.w3.org/2000/svg" width="67" height="58" viewBox="0 0 67 58">
  <g id="Group_5212" data-name="Group 5212" transform="translate(-202 -472)">
    <path id="Polygon_3" data-name="Polygon 3" d="M24.841,14.992a10,10,0,0,1,17.319,0L58.335,43a10,10,0,0,1-8.659,15H17.324A10,10,0,0,1,8.665,43Z" transform="translate(269 530) rotate(180)" fill="#f4f7f9"/>
    <g id="shop" transform="translate(224 485.36)">
      <path id="Path_1021" data-name="Path 1021" d="M20.421,11.218a2.582,2.582,0,0,1-2.23-1.285,2.578,2.578,0,0,1-4.461,0,2.578,2.578,0,0,1-4.46,0,2.58,2.58,0,0,1-4.462,0A2.578,2.578,0,0,1,0,8.641V5.209a.359.359,0,0,1,.024-.127L1.671.862A.349.349,0,0,1,2,.64H21a.349.349,0,0,1,.325.222l1.647,4.22A.345.345,0,0,1,23,5.209V8.641A2.581,2.581,0,0,1,20.421,11.218Zm-2.23-2.926a.349.349,0,0,1,.348.348,1.882,1.882,0,0,0,3.764,0V5.274L20.767,1.337H2.234L.7,5.274V8.641a1.881,1.881,0,0,0,3.763,0,.348.348,0,0,1,.7,0,1.883,1.883,0,0,0,3.765,0,.348.348,0,0,1,.7,0,1.881,1.881,0,0,0,3.763,0,.348.348,0,0,1,.7,0,1.882,1.882,0,0,0,3.764,0A.349.349,0,0,1,18.192,8.292Z" fill="#94b92d" stroke="#94b92d" stroke-width="0.5"/>
      <g id="Group_4920" data-name="Group 4920" transform="translate(4.666 13.301)">
        <path id="Path_1023" data-name="Path 1023" d="M12.088,28.253H7.042a.351.351,0,0,1-.348-.354V19.16a.351.351,0,0,1,.348-.354h5.045a.351.351,0,0,1,.348.354V27.9A.35.35,0,0,1,12.088,28.253Zm-4.7-.707h4.348V19.513H7.391Z" transform="translate(-6.694 -18.806)" fill="#140056"/>
        <path id="Path_1024" data-name="Path 1024" d="M23.058,24.085h-5.97a.349.349,0,0,1-.348-.348V19.155a.349.349,0,0,1,.348-.348h5.97a.349.349,0,0,1,.348.348v4.581A.349.349,0,0,1,23.058,24.085Zm-5.622-.7h5.273V19.5H17.435Z" transform="translate(-9.738 -18.806)" fill="#140056"/>
      </g>
      <path id="Path_1022" data-name="Path 1022" d="M20.525,28.358H3.952a1.517,1.517,0,0,1-1.515-1.515V19.5a.348.348,0,1,1,.7,0v7.343a.819.819,0,0,0,.818.818H20.525a.819.819,0,0,0,.819-.818V19.5a.348.348,0,1,1,.7,0v7.343A1.518,1.518,0,0,1,20.525,28.358Z" transform="translate(-0.738 -5.609)" fill="#94b92d" stroke="#94b92d" stroke-width="0.5"/>
    </g>
  </g>
</svg>
